<svg width="11" height="19" viewBox="0 0 11 19" fill="none" xmlns="http://www.w3.org/2000/svg">
<path d="M10.999 9.45924C10.9909 9.13491 10.8567 8.82499 10.6225 8.58948L2.3727 0.40291C2.11918 0.151852 1.77134 0.00701721 1.40571 0.000248098C1.22466 -0.00310363 1.04469 0.0275336 0.876083 0.0904314C0.707472 0.153329 0.553515 0.247255 0.423008 0.366826C0.292502 0.486398 0.18799 0.629285 0.115456 0.787327C0.042922 0.945368 0.00378014 1.11547 0.000261392 1.28792C-0.00684504 1.6362 0.131588 1.97289 0.385107 2.22395L7.71936 9.5L0.385107 16.776C0.131588 17.0271 -0.00684504 17.3638 0.000261392 17.7121C0.00736783 18.0604 0.159438 18.3917 0.423008 18.6332C0.686578 18.8747 1.04007 19.0065 1.40571 18.9998C1.77134 18.993 2.11918 18.8481 2.3727 18.5971L10.6225 10.4105C10.7487 10.2839 10.847 10.1345 10.9117 9.97113C10.9763 9.80776 11.006 9.63371 10.999 9.45924V9.45924Z" fill="#D8D8D8"/>
</svg>
