<svg width="11" height="19" viewBox="0 0 11 19" fill="none" xmlns="http://www.w3.org/2000/svg">
<path opacity="1" d="M0.00083065 9.45808C0.00891876 9.13375 0.143019 8.82382 0.37716 8.58831L8.62833 0.402922C8.7538 0.278611 8.90374 0.179068 9.06959 0.109977C9.23544 0.0408858 9.41394 0.00360004 9.59491 0.000248315C9.96039 -0.00652079 10.3137 0.125342 10.5772 0.366827C10.8406 0.608313 10.9926 0.939641 10.9997 1.28792C11.0068 1.6362 10.8685 1.97291 10.6151 2.22397L3.28395 9.5L10.6151 16.776C10.8685 17.0271 11.0068 17.3638 10.9997 17.7121C10.9926 18.0604 10.8406 18.3917 10.5772 18.6332C10.3137 18.8747 9.96039 19.0065 9.59491 18.9998C9.22943 18.993 8.88174 18.8481 8.62833 18.5971L0.382049 10.4105C0.255027 10.2843 0.155848 10.1351 0.0903711 9.97167C0.0248938 9.80828 -0.00555325 9.63404 0.00083065 9.45925V9.45808Z" fill="#D8D8D8"/>
</svg>
